<svg xmlns="http://www.w3.org/2000/svg" viewBox="0 0 96 96" fill="none" role="img" aria-label="電気猫 キング">
  <path d="M48 5v17m-10-8h20m-27 9 7-9m24 9-7-9" stroke="#67583D" stroke-width="4" stroke-linecap="round"/><path d="m48 5-4 7 5 2-4 8 10-11h-6l3-6Z" fill="#E9B338" stroke="#A66E19" stroke-width="1.5" stroke-linejoin="round"/>
  <path d="M15 43 17 12 38 27a43 43 0 0 1 20 0L79 12l2 31" fill="#F4E9D0" stroke="#67583D" stroke-width="4" stroke-linejoin="round"/><path d="m22 20 2 17 12-7ZM74 20l-2 17-12-7Z" fill="#DEAE56"/>
  <path d="M12 47c0-22 16-32 36-32s36 10 36 32v9c0 21-15 34-36 34S12 77 12 56v-9Z" fill="#F7EEDB" stroke="#67583D" stroke-width="4"/><path d="m51 20-9 19h8l-4 19 15-25h-9l5-13Z" fill="#E9B338" stroke="#A66E19" stroke-width="1.5" stroke-linejoin="round"/>
  <circle cx="30" cy="57" r="8.5" fill="#FFFDF3" stroke="#3A3732" stroke-width="3"/><circle cx="30" cy="57" r="4.5" fill="#3A3732"/><path d="m61 51 13 13m0-13L61 64" stroke="#3A3732" stroke-width="4" stroke-linecap="round"/>
</svg>
